<?xml version="1.0" encoding="UTF-8" standalone="no"?>
<svg
   xmlns:dc="http://purl.org/dc/elements/1.1/"
   xmlns:cc="http://creativecommons.org/ns#"
   xmlns:rdf="http://www.w3.org/1999/02/22-rdf-syntax-ns#"
   xmlns:svg="http://www.w3.org/2000/svg"
   xmlns="http://www.w3.org/2000/svg"
   xmlns:sodipodi="http://sodipodi.sourceforge.net/DTD/sodipodi-0.dtd"
   xmlns:inkscape="http://www.inkscape.org/namespaces/inkscape"
   sodipodi:docname="dessin.svg"
   inkscape:version="1.0 (4035a4fb49, 2020-05-01)"
   id="svg8"
   version="1.1"
   viewBox="0 0 297 210"
   height="210mm"
   width="297mm">
  <defs
     id="defs2" />
  <sodipodi:namedview
     inkscape:window-maximized="0"
     inkscape:window-y="308"
     inkscape:window-x="308"
     inkscape:window-height="1248"
     inkscape:window-width="2178"
     showgrid="false"
     inkscape:document-rotation="0"
     inkscape:current-layer="layer1"
     inkscape:document-units="mm"
     inkscape:cy="428.22108"
     inkscape:cx="184.05854"
     inkscape:zoom="0.7"
     inkscape:pageshadow="2"
     inkscape:pageopacity="0.0"
     borderopacity="1.0"
     bordercolor="#666666"
     pagecolor="#ffffff"
     id="base" />
  <metadata
     id="metadata5">
    <rdf:RDF>
      <cc:Work
         rdf:about="">
        <dc:format>image/svg+xml</dc:format>
        <dc:type
           rdf:resource="http://purl.org/dc/dcmitype/StillImage" />
        <dc:title></dc:title>
      </cc:Work>
    </rdf:RDF>
  </metadata>
  <g
     id="layer1"
     inkscape:groupmode="layer"
     inkscape:label="Calque 1">
    <path
       style="fill:#000000;fill-opacity:1;stroke-width:1"
       d="m 66.453825,169.62816 c -0.697728,-1.57648 -1.268615,-3.53459 -1.268615,-4.35142 0,-2.11324 -0.854908,-1.83766 -2.142314,0.69065 -1.366533,2.68365 -3.169505,2.81899 -3.622994,0.27194 -0.186323,-1.04704 -0.755481,-8.92515 -1.264582,-17.50696 -0.509059,-8.5818 -1.036,-15.92485 -1.170961,-16.31782 -0.135001,-0.39301 -0.561799,-5.35445 -0.948517,-11.02543 -0.616797,-9.04489 -0.585649,-10.46352 0.253751,-11.55438 0.526297,-0.68394 1.593901,-3.38706 2.372439,-6.00695 1.540821,-5.184919 4.619004,-9.141092 5.135816,-6.600604 0.224259,1.101989 0.55406,1.001817 1.450848,-0.440572 1.108881,-1.783553 1.161329,-1.750072 1.174316,0.749393 l 0.01314,2.616253 1.221927,-2.719652 1.221927,-2.719615 -0.396232,5.711237 c -0.217898,3.14116 -0.187687,5.71124 0.06743,5.71124 0.255041,0 1.561152,-1.76208 2.902428,-3.91572 5.218549,-8.379134 10.822541,-10.18861 16.329553,-5.272695 3.284719,2.932189 4.554726,6.009035 5.267493,12.761505 0.347067,3.28801 0.245001,4.04186 -0.5472,4.04186 -0.53559,0 -1.526368,1.92491 -2.201711,4.27759 -1.526939,5.31949 -2.450494,6.42164 -2.888194,3.44684 -0.184946,-1.25682 -0.633333,-2.28514 -0.996452,-2.28514 -0.363134,0 -1.450876,-1.34621 -2.417189,-2.99161 -1.531748,-2.60814 -2.242155,-2.99011 -5.542339,-2.98017 -4.681435,0.0153 -9.792332,4.00078 -10.1023,7.88009 -0.107744,1.34877 0.414806,6.48886 1.161256,11.42248 0.746466,4.9336 1.425489,10.76402 1.508954,12.95653 0.08341,2.19249 0.608178,7.2211 1.166065,11.17469 0.993929,7.04352 0.988182,7.25368 -0.284404,10.42992 -1.140235,2.84598 -2.981818,5.41287 -3.883341,5.41287 -0.166095,0 -0.872749,-1.28985 -1.570505,-2.86635 z m 36.407145,-4.65685 c -0.20744,-0.59653 -0.74722,-0.83218 -1.19956,-0.52372 -1.27843,0.87188 -2.104712,-10.31433 -2.547367,-34.48739 -0.446862,-24.40308 -0.351436,-25.11192 4.290887,-31.872663 2.15208,-3.134112 2.87493,-3.706093 3.13889,-2.483582 0.20359,0.942941 0.82424,1.364555 1.52757,1.037676 1.13768,-0.52875 1.18466,0.193617 1.18466,18.211929 0,11.86893 0.35786,22.7629 0.974,29.65048 0.9369,10.47383 0.92966,10.99344 -0.19086,13.66079 -2.14464,5.10516 -6.37495,9.11642 -7.17822,6.80648 z m 73.11345,-0.0153 c -5.23345,-0.81875 -7.80937,-2.45524 -11.41878,-7.25446 -5.78505,-7.69204 -6.95746,-23.42481 -2.82552,-37.91659 1.87642,-6.58102 8.645,-19.33928 12.26524,-23.119047 2.46383,-2.572339 2.93158,-2.683195 8.26331,-1.958162 4.64268,0.631419 6.22205,1.342422 8.84699,3.982962 4.22602,4.251147 6.94937,10.112727 9.27679,19.966927 2.27642,9.63832 2.35651,12.96188 0.53499,22.20687 -1.11305,5.64906 -2.14085,8.3255 -5.35597,13.9471 -2.18824,3.82617 -4.78077,7.70986 -5.76113,8.63052 -2.1946,2.06093 -6.98006,2.58492 -13.82592,1.51388 z m 17.79709,-12.76084 1.48388,-2.89191 -1.98928,2.55258 c -2.06924,2.65508 -2.33383,3.23126 -1.48392,3.23126 0.27796,0 1.17318,-1.30138 1.98932,-2.89193 z m -7.55997,-4.08631 c 3.65207,-1.72802 7.2202,-5.32365 7.75897,-7.8188 2.4433,-11.31611 -7.34998,-28.14746 -17.19473,-29.55192 -4.76215,-0.67936 -6.05139,0.65439 -8.31352,8.6005 -3.63941,12.78422 -1.22282,24.81162 5.76351,28.68508 3.48761,1.9336 8.01108,1.96574 11.98577,0.0851 z m 82.80134,16.85038 c -6.90002,-0.87752 -12.22138,-5.73395 -14.99634,-13.6861 -1.64546,-4.71535 -1.8363,-6.1778 -1.8363,-14.07323 0,-7.79313 0.2365,-9.66468 2.047,-16.20092 2.49795,-9.01789 8.09466,-19.90317 12.34933,-24.018752 3.00834,-2.910021 3.40759,-3.018397 8.45871,-2.296438 8.31677,1.188707 13.66309,7.24988 16.6313,18.85512 0.71813,2.80778 1.55794,5.94518 1.86622,6.97206 1.58556,5.28128 1.70689,10.82872 0.40781,18.64589 -1.1532,6.93927 -1.74283,8.56732 -5.50706,15.20617 -2.31852,4.08918 -5.36431,8.36187 -6.76833,9.49486 -2.63232,2.12414 -3.80652,2.22631 -12.65234,1.10134 z m 18.36286,-13.84306 c 0,-0.78691 -2.35901,1.7459 -2.79572,3.00172 -0.22855,0.65719 0.30702,0.35356 1.1901,-0.67487 0.88306,-1.02835 1.60562,-2.07542 1.60562,-2.32685 z m -5.28812,-5.06655 c 6.72232,-5.46964 6.96292,-12.38503 0.80383,-23.10401 -4.79143,-8.3388 -8.63721,-11.72548 -13.93462,-12.27103 -4.0323,-0.41531 -4.03579,-0.41312 -5.95086,3.71602 -2.05316,4.42689 -3.79507,12.12983 -3.77318,16.68552 0.0203,4.24028 2.13541,11.6456 3.91943,13.72315 4.88308,5.68635 12.83791,6.21165 18.9354,1.25035 z m -63.05374,13.40614 c -7.77498,-6.90505 -14.27904,-20.78728 -14.27904,-30.47716 0,-9.51036 7.25454,-26.5756 14.67834,-34.528566 4.08007,-4.370909 11.22469,-7.897705 15.99922,-7.897705 4.40011,0 4.49387,-0.05979 7.02709,-4.478368 1.41213,-2.463045 2.86576,-4.15069 3.2303,-3.750242 1.09083,1.198169 0.24365,16.676281 -1.37329,25.090321 -1.34883,7.01899 -1.38667,7.77113 -0.4837,9.61069 0.91719,1.86846 0.79166,2.31137 -1.9691,6.94729 -2.87601,4.82944 -2.97596,4.90095 -4.05201,2.89963 -0.94751,-1.76227 -1.03419,-3.03783 -0.61397,-9.03506 0.62348,-8.89839 0.0808,-11.31565 -3.03897,-13.5341 -3.71008,-2.638303 -6.12236,-2.241762 -9.49635,1.56109 -4.02303,4.53435 -9.83747,14.54796 -10.76954,18.54711 -0.6617,2.83914 -0.60925,3.60115 0.4001,5.81607 0.63888,1.40187 2.12566,4.73385 3.30392,7.40439 3.50554,7.94521 5.66236,9.92104 11.32374,10.37371 6.91331,0.55278 10.63531,-2.00481 17.7347,-12.18638 1.20544,-1.72882 2.38999,-2.79093 2.63231,-2.36028 0.24231,0.43069 -0.26979,3.06897 -1.13799,5.86294 -1.81559,5.84268 -10.8158,18.82965 -16.72537,24.13399 -4.7106,4.22823 -7.62996,4.22839 -12.39039,6.3e-4 z m -93.80058,-1.75013 -0.79523,-3.90852 -1.65657,2.82067 c -3.1145,5.30316 -3.29062,4.67394 -4.3864,-15.6728 -0.69229,-12.85444 -0.48245,-35.50074 0.4151,-44.80443 0.43532,-4.512256 3.79524,-11.763968 5.45057,-11.763968 0.9312,0 1.01407,0.715334 0.64925,5.603187 l -0.41821,5.60317 1.61299,-1.878323 c 2.63235,-3.065434 3.5393,-1.581699 3.03294,4.961626 l -0.43163,5.577268 2.86803,-3.89205 c 5.5323,-7.507501 13.21286,-12.098933 16.62585,-9.938815 3.94809,2.498769 4.93998,9.152067 5.74892,38.562125 l 0.55348,20.12148 -3.05056,5.17112 c -3.04891,5.16839 -4.85797,6.5243 -4.85797,3.64117 0,-0.99434 -0.42857,-1.33073 -1.22418,-0.961 -1.52824,0.71029 -1.52393,0.10549 0.0731,-10.23903 2.09254,-13.55568 0.78493,-29.10534 -3.16034,-37.58328 -2.40656,-5.17125 -4.09379,-5.26214 -9.254,-0.49838 l -3.8791,3.581 0.0542,11.92089 c 0.0359,7.84408 0.41885,14.15309 1.12014,18.44802 1.88506,11.54436 1.8984,11.07402 -0.43147,15.21479 -1.18298,2.10243 -2.53624,3.82266 -3.00726,3.82266 -0.471,0 -1.21423,-1.75885 -1.65162,-3.90858 z M 19.229398,156.17514 C 8.3981499,152.87264 1.3981321,132.9142 1.2967836,105.04577 1.2245176,85.194435 4.1818131,73.780771 13.318853,58.645488 c 7.88074,-13.054185 16.86831,-15.538345 26.288799,-7.266099 5.659637,4.969814 9.343549,13.382748 10.032408,22.911039 0.163134,2.256621 0.889679,9.139038 1.614552,15.294213 1.177044,9.994937 1.23902,12.029999 0.579786,19.037419 -2.673683,28.4201 -18.699381,51.79295 -32.605,47.55308 z m 16.124965,-12.829 c 3.541139,-2.78396 6.970934,-8.99211 8.777688,-15.8882 2.015857,-7.69431 1.829123,-9.61709 -0.362795,-3.73574 -2.872775,7.70818 -8.538816,15.79772 -13.290831,18.97561 -2.288679,1.53058 -4.298952,3.05371 -4.467289,3.38478 -0.724757,1.42554 6.883717,-0.80286 9.343227,-2.73645 z m -3.620809,-8.95666 c 7.41098,-4.06819 9.579959,-10.21137 9.579959,-27.13321 0,-14.654592 -3.010856,-31.031445 -7.1387,-38.829301 -3.516823,-6.643565 -10.745555,-5.901816 -15.558753,1.596544 -3.308409,5.154088 -3.759785,6.943689 -4.250359,16.851756 -0.975593,19.704161 1.276456,36.786391 5.943261,45.080481 3.09457,5.49989 5.07173,5.92108 11.424592,2.43373 z M 14.837248,66.447081 c 1.092375,-1.607009 3.433634,-4.340162 5.202805,-6.07374 3.735995,-3.660755 2.273347,-4.356843 -1.968745,-0.936962 -4.180102,3.369957 -6.457098,6.936928 -7.892378,12.363689 -1.7800032,6.730096 -1.6475496,7.110873 0.682863,1.963105 1.09412,-2.416841 2.883064,-5.709066 3.975455,-7.316092 z m 85.250832,19.835057 c 0.016,-9.924408 1.24239,-16.413545 4.11577,-21.757053 1.57721,-2.93314 3.82803,-4.05249 3.82803,-1.903753 0,0.598295 0.38421,1.087873 0.85384,1.087873 1.09537,0 1.61973,8.39926 0.61672,9.87868 -0.39102,0.576738 -0.88117,2.561399 -1.08925,4.410335 -0.61812,5.492687 -5.97841,17.25871 -7.86266,17.25871 -0.26176,0 -0.46987,-4.038645 -0.46245,-8.974792 z"
       id="path847" />
  </g>
</svg>
