<?xml version="1.0" encoding="UTF-8" standalone="no"?>
<svg
   xmlns:dc="http://purl.org/dc/elements/1.1/"
   xmlns:cc="http://creativecommons.org/ns#"
   xmlns:rdf="http://www.w3.org/1999/02/22-rdf-syntax-ns#"
   xmlns:svg="http://www.w3.org/2000/svg"
   xmlns="http://www.w3.org/2000/svg"
   xmlns:sodipodi="http://sodipodi.sourceforge.net/DTD/sodipodi-0.dtd"
   xmlns:inkscape="http://www.inkscape.org/namespaces/inkscape"
   sodipodi:docname="orinoco.svg"
   inkscape:version="1.0 (4035a4fb49, 2020-05-01)"
   id="svg8"
   version="1.1"
   viewBox="0 0 210 297"
   height="297mm"
   width="210mm">
  <defs
     id="defs2" />
  <sodipodi:namedview
     inkscape:window-maximized="0"
     inkscape:window-y="175"
     inkscape:window-x="1323"
     inkscape:window-height="1248"
     inkscape:window-width="2178"
     showgrid="false"
     inkscape:document-rotation="0"
     inkscape:current-layer="layer1"
     inkscape:document-units="mm"
     inkscape:cy="499.94826"
     inkscape:cx="483.62569"
     inkscape:zoom="0.7"
     inkscape:pageshadow="2"
     inkscape:pageopacity="0.0"
     borderopacity="1.0"
     bordercolor="#666666"
     pagecolor="#ffffff"
     id="base" />
  <metadata
     id="metadata5">
    <rdf:RDF>
      <cc:Work
         rdf:about="">
        <dc:format>image/svg+xml</dc:format>
        <dc:type
           rdf:resource="http://purl.org/dc/dcmitype/StillImage" />
        <dc:title></dc:title>
      </cc:Work>
    </rdf:RDF>
  </metadata>
  <g
     id="layer1"
     inkscape:groupmode="layer"
     inkscape:label="Calque 1">
    <path
       id="path847"
       d="m 50.195382,168.42952 c -0.475987,-0.92806 -0.865452,-2.08078 -0.865452,-2.56164 0,-1.24404 -0.58322,-1.08181 -1.461492,0.40658 -0.932244,1.57984 -2.162237,1.65951 -2.47161,0.16009 -0.127103,-0.61638 -0.515389,-5.25415 -0.862693,-10.30617 -0.347288,-5.05202 -0.70676,-9.3748 -0.798832,-9.60614 -0.09207,-0.23136 -0.383264,-3.15211 -0.647081,-6.49056 -0.420782,-5.32464 -0.399526,-6.15977 0.173108,-6.80195 0.359037,-0.40263 1.087357,-1.99393 1.618481,-3.53623 1.051147,-3.05231 3.151089,-5.38127 3.503661,-3.88571 0.15299,0.64873 0.377979,0.58976 0.989766,-0.25936 0.756484,-1.04996 0.792259,-1.03025 0.801126,0.44116 l 0.0092,1.54016 0.833599,-1.60103 0.833598,-1.60101 -0.270313,3.36215 c -0.148649,1.84917 -0.128033,3.36215 0.04603,3.36215 0.173993,0 1.065021,-1.03732 1.980044,-2.30515 3.560099,-4.93271 7.383147,-5.99793 11.140039,-3.10398 2.24084,1.72615 3.107238,3.53746 3.593486,7.51257 0.236771,1.93562 0.167143,2.3794 -0.373297,2.3794 -0.365377,0 -1.041289,1.13318 -1.50201,2.51818 -1.041677,3.13153 -1.671724,3.78035 -1.970325,2.02912 -0.126173,-0.73988 -0.43206,-1.34524 -0.679788,-1.34524 -0.247728,0 -0.989782,-0.7925 -1.649001,-1.76113 -1.044963,-1.53539 -1.5296,-1.76025 -3.780996,-1.7544 -3.193682,0.009 -6.68034,2.35522 -6.891797,4.63893 -0.07348,0.79401 0.282976,3.81993 0.792213,6.7243 0.509236,2.90436 0.972468,6.33667 1.029401,7.62738 0.05689,1.2907 0.414901,4.25099 0.795499,6.57843 0.678052,4.14645 0.674131,4.27017 -0.19402,6.13999 -0.777874,1.6754 -2.034202,3.1865 -2.649229,3.1865 -0.113305,0 -0.595389,-0.75932 -1.071392,-1.68739 z m 24.837003,-2.74144 c -0.141519,-0.35117 -0.509763,-0.4899 -0.818346,-0.30831 -0.872149,0.51327 -1.435839,-6.07194 -1.737819,-20.30238 -0.304847,-14.36585 -0.239745,-14.78314 2.927247,-18.76312 1.468157,-1.84502 1.961287,-2.18174 2.141357,-1.46206 0.138884,0.5551 0.562295,0.8033 1.042111,0.61087 0.776124,-0.31127 0.808178,0.11398 0.808178,10.72118 0,6.98712 0.244133,13.40029 0.664459,17.45494 0.639163,6.16584 0.634217,6.47173 -0.130205,8.04197 -1.463072,3.00536 -4.348994,5.36675 -4.896982,4.00691 z m 49.878075,-0.009 c -3.57026,-0.48199 -5.32756,-1.44538 -7.7899,-4.27063 -3.94657,-4.52823 -4.74639,-13.78995 -1.92757,-22.32112 1.28009,-3.87418 5.89762,-11.38484 8.36736,-13.60995 1.68082,-1.51431 1.99993,-1.57957 5.63723,-1.15275 3.16725,0.37171 4.24469,0.79027 6.03543,2.34473 2.883,2.50261 4.74087,5.95326 6.32864,11.75433 1.55298,5.67398 1.60761,7.63053 0.36497,13.07296 -0.75932,3.32555 -1.46049,4.90114 -3.65385,8.21052 -1.49282,2.25243 -3.26144,4.53872 -3.93025,5.0807 -1.49716,1.21325 -4.7618,1.52172 -9.43206,0.89121 z m 12.1412,-7.51218 1.01231,-1.70244 -1.3571,1.50268 c -1.41163,1.56302 -1.59214,1.90221 -1.01233,1.90221 0.18963,0 0.80034,-0.76611 1.35712,-1.70245 z m -5.15742,-2.40557 c 2.49145,-1.01727 4.92563,-3.13398 5.29317,-4.60285 1.66683,-6.66168 -5.01416,-16.57013 -11.73026,-17.39692 -3.24874,-0.39993 -4.12826,0.38523 -5.67149,5.06303 -2.48281,7.52594 -0.83421,14.60635 3.93187,16.88662 2.37926,1.13829 5.46517,1.15721 8.17671,0.0501 z m 56.48717,9.91965 c -4.7072,-0.51659 -8.33744,-3.37552 -10.23052,-8.05687 -1.12254,-2.77588 -1.25272,-3.63681 -1.25272,-8.28477 0,-4.58774 0.16134,-5.6895 1.39646,-9.53732 1.7041,-5.30874 5.52219,-11.7168 8.42473,-14.1396 2.05229,-1.7131 2.32466,-1.7769 5.77054,-1.35189 5.67371,0.69978 9.32097,4.26793 11.34589,11.09982 0.48991,1.65291 1.06283,3.49987 1.27314,4.10438 1.08167,3.10904 1.16444,6.37476 0.2782,10.97665 -0.78671,4.08508 -1.18895,5.0435 -3.75691,8.95172 -1.5817,2.40726 -3.65954,4.92255 -4.61737,5.58953 -1.79577,1.25046 -2.59681,1.31061 -8.63144,0.64835 z m 12.52716,-8.14927 c 0,-0.46325 -1.60931,1.02779 -1.90724,1.76708 -0.15591,0.38688 0.20945,0.20814 0.81189,-0.39729 0.60243,-0.60538 1.09535,-1.22178 1.09535,-1.36979 z m -3.60756,-2.98263 c 4.58598,-3.21992 4.75012,-7.29094 0.54838,-13.6011 -3.26872,-4.90897 -5.89232,-6.90267 -9.50622,-7.22383 -2.75084,-0.24449 -2.75322,-0.2432 -4.05968,2.18758 -1.40067,2.60607 -2.589,7.14071 -2.57407,9.8226 0.0139,2.49621 1.45678,6.85565 2.67384,8.07868 3.33125,3.3475 8.75804,3.65674 12.91775,0.73607 z m -43.01533,7.89206 c -5.3041,-4.06493 -9.74118,-12.23726 -9.74118,-17.9416 0,-5.59865 4.94906,-15.64479 10.01358,-20.32662 2.78343,-2.57311 7.6575,-4.6493 10.91469,-4.6493 3.00176,0 3.06572,-0.0352 4.79389,-2.63637 0.96335,-1.44997 1.95502,-2.44347 2.20371,-2.20773 0.74417,0.70535 0.16622,9.81716 -0.93686,14.77042 -0.92017,4.13201 -0.94599,4.57479 -0.32998,5.65772 0.62571,1.09994 0.54007,1.36068 -1.34332,4.0898 -1.96202,2.84304 -2.0302,2.88514 -2.76429,1.70698 -0.64639,-1.03743 -0.70552,-1.78834 -0.41885,-5.31885 0.42534,-5.23839 0.0551,-6.66141 -2.07319,-7.96739 -2.53102,-1.55314 -4.17668,-1.3197 -6.47842,0.919 -2.74451,2.66933 -6.71114,8.56424 -7.34699,10.9185 -0.45141,1.67137 -0.41563,2.11996 0.27295,3.42386 0.43584,0.82527 1.45012,2.78677 2.25393,4.35889 2.39149,4.67727 3.86287,5.84042 7.72508,6.1069 4.71626,0.32542 7.25541,-1.18021 12.09862,-7.174 0.82236,-1.01774 1.63046,-1.64299 1.79577,-1.38947 0.16531,0.25354 -0.18405,1.80667 -0.77633,3.45145 -1.23861,3.43953 -7.37856,11.08483 -11.41007,14.20744 -3.21358,2.48912 -5.20517,2.48921 -8.45274,3.7e-4 z m -63.990868,-1.03028 -0.542515,-2.30091 -1.130106,1.6605 c -2.124723,3.12192 -2.244871,2.7515 -2.992407,-9.22642 -0.472287,-7.56728 -0.329133,-20.89893 0.283178,-26.37592 0.296976,-2.65632 2.589116,-6.92533 3.718387,-6.92533 0.63526,0 0.691804,0.42111 0.442919,3.29854 l -0.285303,3.29853 1.100383,-1.10575 c 1.795796,-1.80459 2.414515,-0.93113 2.06907,2.92086 l -0.294452,3.28328 1.956576,-2.29121 c 3.774136,-4.41959 9.013828,-7.12252 11.342168,-5.85088 2.6934,1.471 3.37006,5.38773 3.92193,22.70114 l 0.37758,11.84531 -2.0811,3.04419 c -2.07997,3.04258 -3.31411,3.84079 -3.31411,2.14352 0,-0.58536 -0.29237,-0.78339 -0.83514,-0.56573 -1.04257,0.41814 -1.03963,0.0621 0.0498,-6.02762 1.42753,-7.98009 0.53548,-17.13402 -2.15599,-22.1249 -1.64176,-3.04426 -2.792788,-3.09777 -6.313093,-0.29339 l -2.646322,2.1081 0.03701,7.01771 c 0.02445,4.61773 0.285736,8.33178 0.764157,10.86016 1.285985,6.79605 1.295089,6.51917 -0.294349,8.9568 -0.807028,1.23768 -1.730218,2.25036 -2.051548,2.25036 -0.321319,0 -0.828354,-1.03542 -1.126747,-2.30094 z m -72.315987,-0.901 C 10.589734,158.56571 5.81431,146.81638 5.7451683,130.41051 c -0.049246,-11.68628 1.9681711,-18.40539 8.2014767,-27.31538 5.376243,-7.68487 11.507574,-9.147275 17.934248,-4.277476 3.861009,2.925676 6.374174,7.878286 6.844114,13.487496 0.111294,1.32845 0.606949,5.38006 1.101452,9.00355 0.80298,5.88392 0.845262,7.08194 0.395528,11.20714 -1.823981,16.73063 -12.756737,30.48999 -22.243162,27.99402 z m 11.000462,-7.5523 c 2.415778,-1.63889 4.755588,-5.29357 5.988151,-9.35323 1.37522,-4.52956 1.247835,-5.66148 -0.247493,-2.19919 -1.959816,4.53773 -5.825197,9.29996 -9.067021,11.17075 -1.561342,0.90104 -2.932757,1.79769 -3.04759,1.99259 -0.494435,0.8392 4.696076,-0.47264 6.373953,-1.61092 z m -2.470119,-5.2727 c 5.055786,-2.3949 6.535466,-6.01133 6.535466,-15.97305 0,-8.62701 -2.054013,-18.2679 -4.870036,-22.85842 -2.399178,-3.911 -7.330629,-3.47434 -10.614193,0.93987 -2.257001,3.03416 -2.564932,4.08768 -2.8996,9.92046 -0.665555,11.59964 0.870801,21.65578 4.054498,26.53843 2.111117,3.23773 3.45994,3.48568 7.793865,1.43271 z M 14.982487,107.68785 c 0.74522,-0.94603 2.342431,-2.55501 3.549361,-3.57555 2.548702,-2.15505 1.55088,-2.56483 -1.343074,-0.55158 -2.851674,1.98386 -4.405038,4.0837 -5.384194,7.27838 -1.214316,3.96194 -1.123957,4.1861 0.465848,1.15566 0.746409,-1.42277 1.966834,-3.36087 2.712059,-4.30691 z m 58.158223,11.6767 c 0.01085,-5.8424 0.847564,-9.66249 2.807784,-12.80816 1.075979,-1.72671 2.611486,-2.38566 2.611486,-1.12072 0,0.35221 0.262112,0.64042 0.582492,0.64042 0.74726,0 1.104984,4.94456 0.420727,5.81548 -0.266762,0.33952 -0.601137,1.50787 -0.743091,2.59632 -0.421674,3.23349 -4.07848,10.16003 -5.363917,10.16003 -0.178566,0 -0.320535,-2.37751 -0.315481,-5.28337 z"
       style="fill:#000000;stroke-width:1" />
  </g>
</svg>
